 <svg  version="1.0" xmlns="http://www.w3.org/2000/svg"  width="900.000000pt" height="900.000000pt" viewBox="0 0 900.000000 900.000000"  preserveAspectRatio="xMidYMid meet">  <g transform="translate(0.000000,900.000000) scale(0.100000,-0.100000)" fill="#bb0c0c" stroke="none"> <path d="M7492 7457 c-6 -7 -37 -21 -69 -31 -32 -10 -67 -22 -78 -26 -11 -4 -56 -16 -100 -25 -44 -9 -87 -19 -95 -22 -38 -12 -270 -43 -327 -43 -39 0 -76 -6 -95 -16 -18 -9 -42 -14 -59 -10 -16 3 -40 -1 -56 -9 -15 -8 -37 -15 -48 -15 -33 0 -94 -25 -210 -85 -165 -85 -199 -104 -208 -120 -4 -8 -14 -15 -22 -15 -20 0 -93 -61 -203 -171 -118 -117 -158 -166 -167 -202 -4 -15 -19 -36 -32 -47 -24 -19 -24 -20 -5 -20 27 0 63 -51 72 -101 14 -76 -24 -54 -96 53 -39 57 -39 58 -19 58 23 0 18 45 -9 77 -61 73 -95 195 -62 222 9 8 19 31 22 52 4 21 13 44 20 50 16 13 20 164 5 173 -5 3 -12 17 -15 32 -17 66 -156 148 -306 180 -175 38 -779 20 -1000 -31 -41 -9 -86 -19 -100 -22 -85 -15 -168 -38 -185 -49 -11 -8 -33 -14 -50 -14 -57 0 -142 -33 -372 -141 -45 -22 -85 -44 -88 -50 -4 -5 -17 -14 -28 -20 -30 -12 -55 -28 -102 -65 -22 -17 -51 -37 -65 -44 -29 -15 -250 -234 -250 -247 0 -5 -13 -24 -30 -43 -16 -18 -32 -42 -36 -53 -3 -10 -13 -26 -23 -36 -24 -24 -101 -176 -101 -199 0 -11 -7 -25 -15 -32 -8 -7 -15 -22 -15 -33 0 -11 -9 -39 -20 -61 -10 -23 -24 -63 -31 -91 -6 -27 -15 -58 -20 -67 -5 -10 -9 -37 -9 -61 0 -24 -5 -48 -11 -54 -16 -16 -24 -370 -10 -463 26 -172 44 -253 63 -274 4 -6 8 -21 8 -34 0 -13 6 -36 13 -50 18 -35 40 -84 67 -152 12 -30 28 -62 34 -70 7 -8 23 -37 37 -63 13 -27 55 -82 93 -123 54 -59 66 -77 57 -88 -10 -12 -21 -12 -65 -2 -29 7 -57 16 -64 19 -6 4 -64 8 -129 8 -65 1 -127 5 -139 9 -11 5 -103 11 -205 15 -101 3 -218 10 -259 14 -41 5 -140 9 -219 11 -80 1 -170 6 -200 11 -31 5 -106 9 -167 9 -61 0 -114 3 -118 8 -4 4 -20 7 -34 8 -15 0 -77 4 -138 8 l-111 8 -27 -33 c-26 -31 -28 -37 -22 -98 10 -112 18 -154 32 -169 8 -7 14 -29 14 -47 0 -19 4 -36 9 -39 4 -3 11 -26 14 -51 4 -24 11 -53 16 -62 11 -24 37 -114 52 -183 6 -30 15 -65 20 -78 5 -13 9 -38 9 -57 0 -19 4 -36 9 -39 5 -4 12 -24 16 -46 4 -22 11 -42 16 -46 5 -3 9 -17 9 -32 0 -15 7 -40 15 -56 8 -15 15 -39 15 -52 0 -14 7 -41 15 -61 8 -19 15 -48 15 -64 0 -15 5 -31 10 -34 6 -3 10 -32 10 -64 0 -63 18 -91 58 -91 12 0 39 -9 59 -20 21 -11 45 -20 55 -20 10 0 32 -6 50 -14 18 -8 69 -29 113 -46 44 -17 89 -35 100 -40 11 -5 42 -16 68 -26 26 -9 50 -21 53 -25 3 -5 18 -9 34 -9 16 0 32 -4 35 -10 3 -5 21 -10 40 -10 20 0 35 -6 39 -15 3 -8 12 -15 21 -15 8 0 23 -4 33 -9 9 -6 29 -12 45 -16 32 -6 35 -27 7 -55 -24 -24 -26 -58 -5 -66 8 -4 15 -16 15 -28 0 -11 10 -30 23 -42 39 -35 117 -84 136 -84 11 0 21 -7 25 -15 3 -8 12 -15 19 -15 8 0 20 -7 27 -15 7 -8 25 -15 40 -15 15 0 33 -7 41 -16 8 -10 22 -14 38 -11 14 3 37 -1 51 -8 29 -17 166 -20 175 -5 3 6 13 10 21 10 16 0 41 23 67 63 21 33 44 34 93 5 41 -24 146 -64 212 -81 37 -9 48 -8 73 7 19 11 34 15 40 9 5 -5 14 -49 20 -99 6 -49 17 -106 26 -126 9 -20 13 -46 10 -58 -3 -11 1 -37 8 -58 7 -20 21 -71 30 -112 9 -41 30 -103 46 -138 17 -34 27 -67 24 -72 -3 -5 -32 -26 -63 -47 -91 -61 -134 -116 -136 -174 -1 -52 24 -76 88 -84 81 -10 233 9 306 37 36 14 87 34 114 44 70 25 136 95 185 194 23 46 50 95 60 109 10 14 37 64 61 111 23 47 49 92 56 101 8 8 14 19 14 23 0 18 95 150 138 191 58 57 116 85 174 85 52 0 179 -39 206 -63 10 -9 35 -24 57 -32 21 -9 73 -43 116 -76 43 -32 81 -59 86 -59 4 0 76 -69 158 -153 151 -154 171 -176 300 -322 104 -118 119 -132 185 -162 140 -65 255 -89 430 -92 172 -3 259 33 245 102 -8 40 -73 102 -138 130 l-48 21 6 56 c22 200 4 774 -29 935 -4 17 -13 73 -22 125 -9 52 -22 118 -30 146 -8 28 -14 64 -14 80 0 16 -6 38 -14 49 -7 11 -16 37 -19 58 -6 36 -3 42 44 90 59 61 97 114 124 177 10 25 24 52 30 60 53 73 86 177 105 336 12 103 -8 380 -35 474 -25 88 -107 249 -150 293 -19 20 -35 45 -35 57 0 11 15 42 33 68 18 26 41 65 52 87 11 22 27 49 36 60 19 22 73 115 89 154 6 13 24 44 40 68 17 24 30 50 30 57 0 8 6 16 14 19 8 3 33 44 56 92 24 47 47 88 52 91 4 3 15 20 23 37 21 45 39 74 57 94 48 54 59 116 33 181 -28 70 -159 127 -199 87 -8 -8 -23 -15 -33 -15 -30 0 -93 -83 -93 -123 0 -8 -7 -20 -15 -27 -8 -7 -29 -38 -47 -69 -17 -31 -35 -57 -40 -59 -4 -2 -8 -11 -8 -20 0 -9 -8 -25 -18 -36 -10 -12 -27 -41 -37 -66 -11 -25 -25 -49 -32 -53 -7 -4 -13 -13 -13 -19 0 -6 -6 -19 -14 -27 -7 -9 -39 -68 -70 -131 -31 -63 -64 -128 -71 -143 -18 -34 -19 -47 -5 -47 6 0 10 7 10 15 0 8 7 15 15 15 23 0 18 -23 -15 -68 -42 -58 -40 -87 7 -103 48 -15 113 -85 113 -121 0 -19 -5 -28 -15 -28 -22 0 -75 29 -75 40 0 6 -7 10 -15 10 -9 0 -18 7 -21 15 -4 8 -15 15 -26 15 -11 0 -33 8 -50 17 l-30 18 -29 -35 c-16 -19 -29 -44 -29 -57 0 -12 -13 -37 -30 -55 -16 -18 -30 -36 -30 -40 0 -5 -8 -17 -17 -27 -10 -10 -29 -36 -43 -56 -14 -20 -32 -44 -41 -53 -9 -9 -22 -28 -29 -42 -7 -14 -23 -32 -34 -40 -12 -8 -37 -32 -56 -53 -19 -22 -46 -45 -60 -52 -14 -8 -51 -39 -83 -69 -31 -31 -63 -56 -71 -56 -7 0 -19 -7 -26 -15 -7 -8 -22 -15 -33 -15 -21 0 -46 -26 -47 -47 0 -9 13 -6 40 8 22 12 40 27 40 35 0 8 10 14 22 14 19 0 78 36 103 64 6 6 33 29 60 51 28 22 64 55 80 73 17 19 53 58 82 87 28 30 60 66 70 82 10 15 36 53 58 84 22 31 47 67 55 79 26 40 49 60 70 60 81 0 195 -120 263 -278 56 -130 78 -229 83 -377 5 -150 -9 -257 -43 -334 -12 -29 -23 -60 -23 -69 0 -8 -6 -23 -13 -31 -7 -9 -34 -50 -60 -91 -25 -41 -63 -90 -84 -107 -111 -95 -148 -123 -165 -123 -10 0 -18 -4 -18 -9 0 -12 -106 -61 -131 -61 -10 0 -20 -4 -24 -10 -3 -5 13 -8 42 -6 26 1 49 8 51 14 2 7 16 12 32 12 16 0 30 7 34 15 3 8 13 15 21 15 9 0 31 11 48 24 18 14 45 29 60 35 15 6 55 29 87 51 41 28 60 36 60 26 0 -8 -3 -16 -7 -18 -5 -1 -26 -25 -48 -52 -74 -93 -101 -116 -189 -161 -21 -11 -40 -25 -43 -32 -2 -6 -22 -14 -44 -18 -21 -4 -41 -11 -44 -15 -3 -5 -31 -12 -63 -16 -31 -3 -61 -10 -67 -14 -5 -5 -23 -10 -39 -12 -37 -4 -48 -28 -13 -28 13 0 50 9 82 20 32 11 72 20 90 20 17 0 36 5 42 11 11 11 96 45 141 56 18 4 22 1 22 -16 0 -27 -28 -71 -45 -71 -6 0 -30 -13 -51 -28 -32 -23 -98 -49 -171 -68 -7 -2 -13 -8 -13 -14 0 -17 87 -12 94 5 3 9 18 15 35 15 16 0 32 4 36 9 13 22 164 81 205 81 11 0 20 -10 25 -27 5 -23 0 -33 -32 -63 -23 -22 -53 -40 -75 -44 -20 -3 -39 -13 -42 -21 -3 -9 -18 -15 -35 -15 -16 0 -31 -6 -35 -15 -4 -10 -20 -15 -51 -15 -31 0 -47 -5 -51 -15 -4 -8 -19 -15 -34 -15 -16 0 -32 -4 -35 -10 -8 -12 47 -14 61 -2 5 5 46 17 92 27 45 10 87 24 93 32 35 41 113 -23 122 -101 29 -220 38 -350 42 -606 5 -293 10 -426 17 -424 42 13 48 18 49 40 2 36 3 42 12 50 4 4 7 -6 7 -22 0 -16 11 -46 25 -66 27 -40 17 -62 -14 -34 -20 19 -71 22 -71 4 0 -6 8 -20 17 -30 28 -31 3 -43 -83 -41 -53 1 -89 8 -118 23 -23 11 -50 20 -60 20 -10 0 -32 7 -49 16 -18 10 -45 24 -62 33 -34 17 -163 145 -215 211 -87 113 -417 440 -445 440 -3 0 -31 19 -62 42 -31 23 -86 57 -122 76 -37 18 -70 37 -76 41 -5 4 -36 16 -67 25 -32 10 -60 22 -63 26 -6 10 -35 12 -149 12 -104 -1 -122 -8 -76 -32 19 -11 49 -19 66 -20 35 0 67 -26 43 -34 -43 -14 -90 -16 -108 -5 -16 10 -31 9 -81 -6 -34 -10 -65 -26 -68 -34 -3 -9 -37 -58 -74 -109 -38 -51 -76 -109 -85 -130 -10 -20 -22 -44 -29 -52 -11 -14 -107 -194 -147 -275 -37 -75 -74 -111 -157 -149 -76 -35 -161 -49 -174 -27 -3 4 8 26 24 47 16 21 30 47 30 57 0 10 4 26 9 35 9 18 1 65 -33 182 -66 226 -97 401 -77 439 12 22 64 47 156 75 97 29 118 34 160 42 22 4 49 13 60 20 11 8 27 14 36 14 9 0 37 9 63 21 66 29 147 43 251 43 124 1 125 19 1 28 -77 6 -101 11 -111 25 -13 17 -14 17 -32 0 -11 -9 -29 -17 -40 -17 -11 0 -64 -16 -117 -35 -53 -19 -111 -35 -127 -35 -17 0 -37 -7 -46 -15 -9 -9 -23 -13 -35 -10 -10 4 -30 0 -43 -9 -13 -9 -34 -16 -45 -16 -11 0 -31 -6 -43 -14 -21 -14 -167 -56 -194 -56 -18 0 -16 20 4 43 18 20 17 20 -27 13 -25 -4 -61 -8 -80 -9 -66 -5 -340 101 -396 154 -22 21 -34 24 -34 9 0 -5 7 -10 15 -10 19 0 31 -65 17 -94 -26 -57 -157 -85 -239 -51 -19 8 -46 15 -58 15 -13 0 -36 6 -52 14 -15 8 -45 22 -66 31 -113 48 -188 125 -165 168 7 14 5 22 -9 33 -15 11 -15 13 -3 14 9 0 21 -5 27 -11 8 -8 19 -8 40 -1 l28 10 -33 1 c-29 1 -33 4 -30 24 3 21 9 22 103 27 73 4 104 2 116 -7 8 -7 26 -13 40 -13 25 0 106 -26 124 -39 10 -8 59 -21 160 -42 33 -7 65 -15 70 -19 6 -4 30 -10 54 -14 24 -4 62 -15 84 -26 22 -11 52 -20 66 -20 14 0 39 -7 55 -15 18 -10 33 -12 40 -6 6 5 35 13 64 17 29 4 55 11 58 15 3 5 18 9 34 9 16 0 44 6 62 14 18 8 58 21 88 30 30 9 84 25 119 36 35 11 72 20 82 20 10 0 21 5 24 10 3 5 21 10 38 10 18 0 45 7 61 15 15 8 36 15 45 15 9 0 29 7 45 15 15 8 37 15 48 15 11 0 31 9 45 20 14 11 35 20 47 20 12 0 39 18 61 40 51 53 65 52 65 -5 0 -25 -4 -45 -10 -45 -5 0 -10 -10 -10 -22 0 -12 -6 -29 -13 -37 -23 -29 -40 -92 -28 -104 13 -13 161 -10 175 3 4 5 -11 12 -34 17 -57 11 -67 28 -49 84 12 37 21 47 57 64 23 11 41 24 39 29 -2 5 -18 14 -37 20 -35 11 -35 11 -32 64 2 28 0 52 -5 51 -4 0 -21 -9 -38 -20 -16 -10 -40 -24 -52 -30 -13 -7 -23 -16 -23 -21 0 -4 -27 -8 -60 -8 -47 0 -60 -3 -60 -15 0 -8 -6 -15 -14 -15 -7 0 -19 7 -26 15 -7 8 -25 15 -41 15 -15 0 -32 6 -36 14 -4 7 -29 23 -54 34 -46 21 -65 44 -53 64 4 6 10 5 15 -3 4 -7 11 -10 15 -6 4 4 0 15 -8 24 -9 10 -23 35 -31 55 -20 47 -40 42 -67 -15 -24 -49 -24 -47 -5 -47 8 0 15 -4 15 -8 0 -14 -40 -52 -56 -52 -8 0 -17 -6 -20 -14 -3 -8 -16 -17 -30 -20 -13 -4 -24 -13 -24 -21 0 -11 -13 -15 -51 -15 -31 0 -48 -4 -44 -10 9 -15 78 -12 121 6 59 25 165 22 257 -6 42 -13 76 -29 74 -34 -5 -16 -68 -45 -97 -46 -27 0 -125 -32 -137 -43 -3 -4 -16 -7 -29 -7 -23 0 -118 -26 -145 -40 -9 -5 -63 -20 -120 -35 -57 -15 -118 -34 -135 -43 -20 -9 -41 -12 -59 -8 -23 6 -26 11 -21 34 4 15 11 79 16 142 6 63 15 136 20 163 6 28 6 54 1 65 -5 9 -13 28 -18 41 -8 20 -12 9 -22 -64 -7 -50 -16 -94 -21 -100 -5 -6 -10 -62 -11 -125 -2 -63 -7 -121 -12 -127 -14 -18 -61 -16 -115 6 -57 22 -115 42 -252 88 -58 19 -114 40 -125 45 -10 6 -44 17 -75 25 -107 27 -168 47 -212 69 -14 8 -37 14 -50 14 -13 0 -28 4 -34 8 -5 4 -36 16 -69 26 -33 10 -85 27 -116 37 -30 11 -65 19 -76 19 -11 0 -26 7 -33 15 -7 8 -20 15 -30 15 -10 0 -31 7 -46 15 -16 8 -41 15 -55 15 -14 0 -45 10 -70 22 -24 12 -62 25 -84 29 -44 8 -153 43 -200 64 -53 24 -74 55 -81 120 -4 33 -11 65 -15 71 -5 6 -13 31 -18 55 -5 24 -23 91 -41 149 -17 58 -35 128 -40 155 -5 28 -23 100 -40 160 -16 61 -35 128 -41 150 -5 22 -15 54 -21 70 -10 30 -22 85 -34 157 -5 29 -3 38 12 46 23 12 390 -3 445 -18 20 -6 101 -10 180 -10 79 0 173 -4 209 -9 70 -10 172 -16 425 -27 88 -4 170 -10 183 -15 20 -8 259 -11 342 -5 29 3 35 7 36 27 1 13 5 34 9 46 7 22 7 22 47 -8 23 -16 48 -29 56 -29 32 0 162 -101 162 -126 0 -6 7 -17 15 -24 8 -7 15 -21 15 -31 0 -10 12 -25 28 -33 15 -8 23 -16 17 -17 -13 -2 -24 -4 -62 -13 -38 -10 -45 -32 -45 -142 1 -98 9 -134 30 -132 48 4 50 1 36 -44 -7 -24 -18 -97 -24 -163 -6 -66 -16 -151 -22 -190 -18 -122 -21 -265 -6 -265 18 0 48 104 48 162 0 26 4 67 10 90 5 24 19 95 31 158 11 63 26 129 34 145 37 84 45 107 45 125 0 10 5 22 10 25 6 4 8 15 5 24 -3 10 1 24 10 31 25 21 19 83 -10 110 -30 28 -17 54 13 27 10 -9 28 -17 40 -17 11 0 24 -4 27 -10 3 -5 15 -10 26 -10 11 0 30 -7 42 -15 12 -8 38 -16 57 -17 19 -2 40 -8 45 -14 14 -16 65 -27 65 -14 0 6 -12 15 -27 21 -16 6 -40 17 -55 25 -14 8 -31 14 -36 14 -12 0 -87 44 -182 106 -36 24 -96 78 -135 120 -90 100 -115 124 -130 124 -7 0 -20 9 -30 20 -10 11 -24 20 -31 20 -17 0 -64 69 -64 92 0 22 16 23 36 3 9 -8 24 -15 35 -15 11 0 36 -7 57 -16 75 -33 185 -42 362 -30 56 4 123 27 151 53 14 13 29 23 33 23 5 0 34 15 65 34 84 51 174 56 331 16 25 -6 65 -13 90 -15 25 -2 95 -8 155 -13 230 -21 445 -1 573 54 18 8 38 14 44 14 43 0 241 170 294 252 13 20 28 39 34 43 5 3 19 25 30 48 11 23 24 49 29 57 5 8 14 35 21 60 7 25 18 61 25 80 25 70 35 107 35 130 0 12 4 39 9 59 9 34 14 65 41 249 6 40 7 103 4 140 -7 62 -11 70 -54 116 -57 60 -90 67 -230 50 -93 -11 -126 -18 -260 -55 -36 -9 -90 -22 -120 -29 -30 -6 -72 -20 -92 -31 -20 -10 -48 -19 -62 -19 -14 0 -51 -7 -83 -16 -32 -9 -66 -17 -76 -18 -9 -1 -23 -8 -29 -14 -7 -7 -26 -12 -44 -12 -18 0 -45 -6 -61 -14 -79 -40 -157 -66 -196 -66 -14 0 -28 -4 -32 -9 -3 -6 -45 -22 -93 -36 -80 -24 -130 -43 -174 -66 -10 -5 -28 -9 -41 -9 -12 0 -33 -7 -45 -16 -13 -9 -62 -29 -110 -45 -105 -34 -171 -59 -235 -87 -27 -12 -53 -22 -58 -22 -5 0 -36 -13 -69 -30 -33 -16 -65 -30 -72 -30 -7 0 -67 -27 -132 -60 -66 -33 -125 -60 -132 -60 -6 0 -31 -16 -54 -35 -23 -19 -46 -35 -51 -35 -5 0 -27 -11 -49 -25 -22 -14 -45 -25 -52 -25 -18 0 -40 36 -55 90 -19 69 -28 398 -14 500 26 179 78 346 155 502 45 89 53 101 140 209 67 84 247 259 266 259 5 0 39 20 74 45 35 24 88 55 117 68 30 13 79 35 109 49 111 52 183 78 330 119 25 7 54 19 65 26 11 7 43 13 72 13 29 0 62 4 75 9 27 10 173 31 268 37 36 2 88 9 115 14 64 12 515 5 580 -10 28 -6 66 -14 85 -19 54 -12 96 -38 127 -77 33 -45 34 -80 5 -189 -37 -136 -26 -210 44 -312 24 -37 64 -86 87 -110 23 -24 59 -76 80 -116 117 -218 126 -238 132 -295 3 -31 15 -113 26 -182 31 -204 19 -491 -27 -650 -9 -30 -20 -78 -25 -107 -5 -29 -20 -69 -34 -89 -14 -20 -25 -43 -25 -51 0 -8 -9 -26 -20 -40 -11 -14 -20 -36 -20 -48 0 -12 -7 -28 -15 -35 -8 -7 -15 -17 -15 -22 0 -10 -46 -76 -65 -93 -21 -19 -75 -103 -75 -117 0 -7 19 8 43 34 54 60 127 153 127 162 0 9 36 85 53 110 61 95 77 122 77 132 0 7 7 14 15 18 9 3 15 18 15 36 0 29 13 40 25 20 11 -18 25 -10 25 14 0 13 7 29 15 36 8 7 15 21 15 32 0 10 6 31 14 46 27 52 56 254 56 387 0 135 -28 309 -55 349 -8 11 -15 34 -15 50 0 28 -1 28 -18 13 -10 -10 -21 -17 -25 -17 -3 0 -20 28 -37 62 -28 58 -39 126 -24 141 7 7 54 -33 54 -47 0 -4 14 -25 30 -46 17 -21 30 -47 30 -58 0 -15 15 -25 63 -42 34 -13 81 -25 105 -28 23 -2 45 -9 48 -13 7 -12 174 -11 254 1 36 6 84 13 108 15 24 3 51 9 62 15 10 5 32 10 47 10 16 0 38 7 49 15 10 8 29 15 42 15 12 0 40 9 62 20 22 11 45 20 51 20 7 0 20 6 28 14 9 7 52 28 95 46 44 17 87 36 95 40 48 23 97 34 194 43 93 9 107 12 107 28 0 10 5 21 10 24 17 10 11 35 -8 35 -10 0 -52 33 -93 73 -89 85 -119 142 -119 222 0 43 -4 56 -19 65 -33 17 -58 11 -76 -17 -22 -34 -110 -120 -156 -153 -19 -13 -46 -35 -61 -49 -30 -26 -40 -33 -119 -75 -30 -16 -65 -36 -79 -46 -61 -41 -238 -100 -302 -100 -24 0 -49 -5 -55 -11 -15 -15 -307 -3 -400 17 -13 2 -23 10 -23 18 0 7 -9 25 -21 40 -29 37 -19 63 42 111 27 22 62 51 78 65 64 57 96 82 125 97 17 9 36 22 41 29 24 29 299 154 400 182 121 33 152 36 377 39 199 3 242 1 267 -12 17 -8 52 -15 80 -15 27 0 62 -6 78 -14 25 -13 72 -27 143 -43 14 -3 32 -12 41 -20 15 -12 19 -10 39 22 l22 36 -31 44 c-18 25 -38 72 -48 113 -14 61 -15 78 -4 129 20 90 50 174 72 201 24 31 24 58 0 72 -27 14 -66 13 -79 -3z m-133 -222 c9 -9 1 -159 -9 -169 -13 -13 -142 -10 -186 5 -51 16 -438 16 -509 0 -33 -8 -81 -13 -107 -12 -25 1 -49 -3 -53 -9 -8 -12 -55 -13 -55 -1 0 11 25 21 49 21 10 0 26 9 36 20 10 12 31 20 49 20 17 1 42 7 56 15 14 8 37 14 53 15 15 0 27 4 27 8 0 5 71 17 158 26 217 25 265 32 357 55 69 16 121 19 134 6z m-285 -710 c31 -47 14 -70 -74 -98 -113 -35 -131 -40 -137 -34 -3 4 4 19 18 33 32 35 151 124 165 124 7 0 19 -11 28 -25z m-1490 -411 c20 -8 21 -52 1 -127 -8 -32 -15 -82 -15 -112 0 -30 -7 -80 -15 -112 -8 -31 -15 -73 -15 -92 0 -63 -69 -281 -117 -371 -51 -94 -146 -210 -173 -210 -6 0 -10 -4 -10 -10 0 -12 -113 -75 -172 -95 -103 -34 -145 -39 -363 -38 -221 0 -255 3 -470 48 -88 19 -235 16 -273 -4 -12 -6 -49 -34 -82 -62 -97 -80 -133 -92 -280 -93 -130 0 -143 3 -270 63 -73 34 -168 106 -243 185 -99 102 -102 108 -74 133 30 26 139 93 207 127 30 14 62 30 70 35 47 27 210 101 222 101 8 0 23 7 34 15 10 8 26 15 35 15 9 0 22 7 29 15 7 8 23 15 35 15 13 0 36 6 52 14 50 25 96 44 188 76 50 17 105 38 123 46 18 8 41 14 52 14 10 0 21 4 24 9 3 5 79 32 168 61 90 29 176 58 191 66 16 8 38 14 50 14 12 0 31 7 41 15 11 8 32 15 47 15 15 0 40 6 56 14 15 8 46 19 68 25 22 6 72 20 111 31 39 11 80 20 91 20 10 0 28 7 39 15 10 8 29 15 41 15 12 0 57 12 100 26 82 27 94 29 268 64 61 11 128 25 150 29 53 12 61 12 79 5z m852 -441 c-26 -47 -63 -86 -75 -79 -7 5 5 29 36 68 46 60 69 67 39 11z m-86 -117 c0 -8 -6 -16 -14 -19 -8 -3 -12 -15 -9 -30 3 -17 -1 -26 -13 -31 -28 -11 -29 2 -4 49 25 45 40 57 40 31z m-60 -113 c0 -10 -9 -29 -20 -43 -16 -21 -20 -23 -25 -8 -7 17 20 68 36 68 5 0 9 -8 9 -17z m-54 -106 c-3 -14 -21 -45 -39 -69 -18 -24 -41 -63 -51 -88 -17 -45 -52 -90 -68 -90 -32 0 17 113 72 165 16 16 30 34 30 41 0 7 10 29 21 49 24 40 46 35 35 -8z m-2726 -975 c0 -5 20 -19 45 -31 25 -12 45 -28 45 -35 0 -14 -26 -51 -67 -96 -13 -14 -23 -30 -23 -36 0 -19 -32 -26 -48 -10 -12 12 -12 20 -2 51 8 24 10 61 6 101 -7 63 -6 64 19 64 14 0 25 -4 25 -8z m-1785 -887 c22 -6 51 -16 65 -22 14 -6 52 -19 85 -29 33 -9 67 -21 75 -25 8 -4 41 -13 73 -20 32 -7 60 -16 63 -21 3 -4 15 -8 27 -8 12 0 31 -7 41 -15 11 -8 29 -15 40 -15 12 0 30 -7 40 -15 11 -8 32 -15 47 -15 15 0 31 -4 34 -10 3 -5 19 -10 34 -10 16 0 34 -7 41 -15 7 -8 20 -15 30 -15 29 0 153 -57 141 -64 -6 -4 -41 -7 -78 -7 -51 0 -84 6 -133 26 -36 15 -103 40 -150 55 -47 16 -121 43 -165 61 -44 17 -120 46 -170 64 -184 67 -215 80 -220 93 -8 21 5 34 24 26 9 -4 34 -12 56 -19z m1963 -1397 c2 -8 -5 -18 -15 -22 -10 -3 -24 -9 -30 -12 -20 -9 -16 34 5 45 21 13 36 9 40 -11z"/> <path d="M4525 5396 c-22 -12 -53 -42 -70 -65 -24 -34 -29 -51 -29 -96 1 -52 12 -79 52 -126 9 -10 22 -19 28 -19 6 0 17 -7 24 -15 20 -24 111 -20 157 7 59 35 72 50 79 85 3 18 10 36 15 39 5 3 9 23 9 46 0 37 -2 40 -22 33 -48 -15 -98 -17 -114 -4 -13 11 -15 26 -11 76 l5 63 -42 0 c-24 -1 -58 -10 -81 -24z"/> <path d="M3482 5110 c-49 -46 -56 -90 -21 -134 63 -80 160 -70 200 19 26 60 17 79 -34 71 -49 -8 -67 5 -67 50 0 47 -25 45 -78 -6z"/> <path d="M5445 4625 c-44 -42 -97 -88 -118 -101 -21 -14 -40 -31 -44 -39 -3 -8 -12 -15 -21 -15 -9 0 -25 -9 -36 -19 -37 -34 -164 -101 -192 -101 -7 0 -16 -5 -19 -10 -4 -6 -24 -18 -46 -27 -21 -8 -39 -20 -39 -25 0 -14 60 -1 80 17 9 8 28 15 42 15 14 0 28 7 32 15 3 8 16 15 30 15 13 0 26 7 30 15 3 8 14 15 25 15 11 0 25 9 31 21 7 11 25 25 41 31 16 5 29 14 29 19 0 5 10 14 23 20 45 20 64 35 119 92 31 31 61 57 68 57 21 0 52 38 48 61 -3 20 -12 13 -83 -56z"/> <path d="M2020 4388 c-42 -38 -50 -72 -47 -208 l2 -125 -35 -49 c-61 -84 -76 -110 -90 -154 -18 -58 -17 -94 6 -125 32 -45 72 -57 183 -57 90 0 101 -2 111 -20 6 -11 18 -20 28 -20 9 0 40 -18 67 -40 28 -22 57 -40 66 -40 8 0 19 -4 25 -9 5 -5 29 -16 53 -24 39 -14 46 -14 75 2 71 40 87 97 67 238 -11 76 -1 123 37 177 41 57 89 155 97 198 6 29 2 43 -16 67 -12 17 -28 31 -35 31 -6 0 -17 7 -24 15 -10 12 -37 15 -123 15 -106 0 -112 1 -161 32 -150 93 -176 107 -217 112 -37 5 -48 3 -69 -16z m36 -23 c4 -8 12 -15 20 -15 8 0 14 -4 14 -8 0 -8 102 -94 139 -117 9 -5 38 -27 66 -48 40 -31 56 -38 80 -33 80 14 142 30 167 42 32 17 98 19 98 2 0 -12 -14 -29 -64 -76 -15 -15 -31 -34 -35 -43 -3 -9 -16 -29 -28 -45 -100 -131 -98 -125 -95 -188 1 -33 6 -64 11 -70 5 -6 12 -31 16 -56 3 -25 16 -63 27 -86 12 -22 18 -48 15 -57 -8 -22 -49 -22 -68 1 -35 40 -266 211 -297 219 -12 3 -28 1 -35 -5 -6 -5 -36 -12 -66 -16 -30 -4 -63 -14 -75 -22 -11 -8 -33 -14 -48 -14 -37 0 -37 30 0 62 15 12 42 43 60 68 88 123 106 146 119 153 18 11 17 106 -2 131 -8 11 -15 38 -15 61 0 22 -9 57 -20 78 -27 50 -26 97 2 97 5 0 11 -7 14 -15z"/> <path d="M2236 4043 c-52 -14 -75 -102 -36 -138 28 -26 100 -23 122 6 23 27 23 81 1 107 -19 23 -56 33 -87 25z"/> <path d="M4865 4270 c-4 -6 5 -10 19 -10 14 0 26 5 26 10 0 6 -9 10 -19 10 -11 0 -23 -4 -26 -10z"/> <path d="M5156 4261 c-10 -16 -108 -62 -121 -57 -15 5 -95 -32 -95 -45 0 -5 -20 -9 -45 -9 -35 0 -45 -4 -45 -16 0 -27 77 -9 162 37 10 5 23 9 29 9 17 0 168 74 169 83 0 10 -48 9 -54 -2z"/> <path d="M3947 4254 c-3 -4 -4 -11 -1 -15 7 -12 54 -11 54 1 0 6 -4 10 -9 10 -5 0 -16 2 -23 5 -8 3 -17 3 -21 -1z"/> <path d="M4788 4253 c-10 -2 -18 -9 -18 -14 0 -15 73 -6 78 9 4 12 -24 15 -60 5z"/> <path d="M3681 4204 c-6 -14 -9 -35 -5 -46 3 -10 1 -24 -4 -31 -16 -20 -24 -85 -11 -93 15 -9 29 14 29 48 0 41 50 78 98 72 20 -3 46 -10 57 -15 77 -34 185 -53 170 -29 -3 6 -26 10 -50 10 -28 0 -45 5 -48 14 -3 8 -22 18 -42 22 -19 3 -38 10 -41 15 -3 5 -16 9 -28 9 -13 0 -34 8 -47 19 -43 33 -64 34 -78 5z"/> <path d="M4012 4218 c3 -8 30 -14 73 -16 38 -2 76 -8 83 -15 17 -13 154 -18 173 -6 20 12 -4 19 -81 23 -36 3 -85 9 -110 15 -65 15 -143 14 -138 -1z"/> <path d="M4595 4213 c-33 -8 -94 -16 -135 -17 -97 -3 -102 -4 -96 -15 8 -13 237 -6 245 7 3 6 33 12 65 14 36 2 61 8 64 16 5 16 -64 14 -143 -5z"/> <path d="M4760 4105 c0 -16 35 -20 64 -9 29 11 16 24 -24 24 -29 0 -40 -4 -40 -15z"/> <path d="M4042 4089 c2 -7 10 -15 17 -17 8 -3 12 1 9 9 -2 7 -10 15 -17 17 -8 3 -12 -1 -9 -9z"/> <path d="M4644 4091 c-2 -2 -4 -8 -4 -13 0 -11 77 -10 84 1 6 9 -71 21 -80 12z"/> <path d="M4095 4080 c-4 -6 5 -10 20 -10 15 0 24 4 20 10 -3 6 -12 10 -20 10 -8 0 -17 -4 -20 -10z"/> <path d="M4190 4066 c0 -16 16 -18 130 -20 45 -1 31 19 -15 21 -22 1 -57 5 -77 8 -31 6 -38 4 -38 -9z"/> <path d="M5195 4006 c-19 -19 -65 -49 -102 -67 -38 -17 -76 -36 -86 -41 -10 -5 -41 -11 -70 -14 -29 -3 -56 -9 -60 -13 -13 -13 11 -23 30 -12 10 5 44 9 77 10 38 0 65 6 76 16 9 8 24 15 32 15 9 0 21 7 28 15 7 8 18 15 26 15 7 0 21 13 30 29 10 16 25 32 34 34 15 4 36 47 24 47 -3 0 -20 -16 -39 -34z"/> <path d="M3636 4013 c-3 -3 -6 -19 -6 -34 0 -15 -7 -29 -15 -33 -11 -4 -15 -20 -15 -54 0 -31 -5 -54 -14 -61 -8 -7 -16 -37 -19 -69 -5 -64 -11 -98 -26 -157 -23 -94 -29 -112 -41 -134 -11 -22 -10 -26 14 -44 14 -10 26 -28 26 -41 0 -12 7 -31 15 -42 13 -16 16 -17 25 -4 5 8 8 26 5 40 -3 15 3 40 15 62 11 21 20 44 20 51 0 7 25 43 56 81 58 70 147 145 216 183 23 12 46 27 52 33 5 5 19 10 31 10 11 0 32 6 46 14 32 16 141 36 224 41 89 5 94 -1 99 -126 2 -57 9 -117 15 -134 6 -16 12 -66 14 -109 2 -54 7 -81 15 -84 7 -2 16 5 19 17 7 29 23 16 23 -20 0 -18 9 -39 23 -52 20 -20 30 -22 135 -19 66 2 110 7 107 13 -4 5 -30 9 -58 10 -103 2 -126 18 -132 94 -13 169 -15 251 -7 263 8 11 87 23 165 24 15 1 27 5 27 9 0 5 -35 9 -78 9 -43 0 -102 7 -132 16 -30 8 -65 15 -77 15 -16 -1 -25 7 -29 24 -9 34 2 59 23 51 18 -7 83 11 83 24 0 4 -24 11 -52 15 -29 4 -65 14 -81 22 -57 29 -132 35 -220 18 -125 -25 -183 -44 -245 -79 -89 -50 -195 -122 -221 -150 -54 -60 -84 -2 -49 98 9 28 17 65 18 82 0 18 7 45 15 60 8 16 15 37 15 46 0 19 -14 31 -24 21z"/> <path d="M5276 3916 c-28 -16 -56 -44 -56 -56 0 -5 -7 -10 -15 -10 -8 0 -15 -5 -15 -10 0 -6 -12 -16 -27 -22 -22 -9 -24 -12 -10 -15 21 -5 108 56 132 93 20 30 17 36 -9 20z"/> <path d="M4657 3862 c-9 -2 -15 -8 -12 -13 9 -13 118 -12 113 2 -4 11 -67 18 -101 11z"/> <path d="M4797 3863 c-12 -11 -8 -23 8 -23 8 0 15 7 15 15 0 16 -12 20 -23 8z"/> <path d="M5094 3785 c-18 -15 -18 -15 5 -13 14 2 26 9 29 16 5 17 -10 15 -34 -3z"/> <path d="M5005 3760 c-4 -7 -18 -9 -30 -6 -13 3 -27 1 -30 -5 -5 -7 9 -9 42 -7 26 2 47 7 46 13 -2 14 -20 18 -28 5z"/> <path d="M4827 3741 c-5 -19 -2 -20 36 -15 49 8 73 24 37 24 -14 0 -35 3 -46 6 -16 4 -23 0 -27 -15z"/> <path d="M4730 3735 c-31 -11 -32 -13 -12 -19 22 -7 62 8 62 24 0 12 -5 11 -50 -5z"/> <path d="M5598 3413 c-31 -5 -37 -20 -12 -30 18 -7 64 12 64 27 0 10 -3 10 -52 3z"/> <path d="M3780 3390 c0 -5 6 -10 14 -10 8 0 18 5 21 10 3 6 -3 10 -14 10 -12 0 -21 -4 -21 -10z"/> <path d="M5471 3379 c-24 -5 -47 -6 -52 -4 -4 3 -10 1 -14 -5 -4 -6 19 -10 64 -10 56 0 71 3 71 15 0 16 -5 17 -69 4z"/> <path d="M5327 3354 c-3 -4 -29 -6 -56 -6 -28 1 -53 -3 -56 -9 -5 -6 23 -9 81 -7 59 2 89 7 92 16 4 12 -49 18 -61 6z"/> <path d="M4843 3332 c-83 -2 -103 -6 -103 -18 0 -12 31 -14 222 -12 160 2 222 6 225 15 5 13 -159 20 -344 15z"/> <path d="M5390 3229 c0 -16 4 -19 18 -14 9 4 38 10 64 12 66 7 50 23 -23 23 -53 0 -59 -2 -59 -21z"/> <path d="M4500 3221 c-22 -15 -12 -18 83 -24 70 -4 87 -2 87 9 0 10 -15 14 -57 14 -32 0 -67 3 -78 5 -11 3 -27 1 -35 -4z"/> <path d="M4700 3206 c0 -9 7 -16 16 -16 17 0 14 22 -4 28 -7 2 -12 -3 -12 -12z"/> <path d="M5190 3211 c0 -6 5 -13 11 -16 15 -10 149 5 149 16 0 5 -36 9 -80 9 -44 0 -80 -4 -80 -9z"/> <path d="M4780 3190 c-20 -12 -9 -21 18 -13 12 3 19 9 16 14 -7 11 -15 11 -34 -1z"/> <path d="M5593 3140 c-33 -13 -29 -17 17 -17 27 0 40 4 40 13 0 16 -24 17 -57 4z"/> <path d="M5463 3112 c-45 -5 -41 -22 5 -22 43 0 75 15 45 21 -10 2 -33 3 -50 1z"/> <path d="M2580 3096 c0 -9 39 -13 51 -5 10 6 4 9 -18 9 -18 0 -33 -2 -33 -4z"/> <path d="M5328 3083 c-33 -8 -18 -23 22 -23 40 0 53 13 24 24 -17 6 -19 6 -46 -1z"/> <path d="M2686 3071 c-8 -12 20 -22 39 -15 19 8 9 24 -15 24 -10 0 -21 -4 -24 -9z"/> <path d="M5163 3053 c-40 -2 -73 -8 -73 -14 0 -13 170 -7 171 6 0 12 -5 12 -98 8z"/> <path d="M2750 3040 c0 -5 13 -10 30 -10 16 0 33 -6 37 -14 4 -8 26 -23 49 -35 22 -12 50 -30 62 -41 28 -26 28 -16 2 18 -22 27 -47 44 -92 63 -16 6 -28 15 -28 20 0 5 -13 9 -30 9 -16 0 -30 -4 -30 -10z"/> <path d="M4495 3040 c-3 -5 1 -10 9 -10 8 0 18 5 21 10 3 6 -1 10 -9 10 -8 0 -18 -4 -21 -10z"/> <path d="M4572 3018 c4 -10 58 -14 231 -16 193 -2 227 0 227 12 0 12 -36 15 -231 16 -183 0 -230 -2 -227 -12z"/> <path d="M5555 3012 c-3 -3 -5 -9 -5 -14 0 -11 57 -10 64 1 6 9 -50 21 -59 13z"/> <path d="M5460 2990 c0 -5 9 -10 19 -10 11 0 23 5 26 10 4 6 -5 10 -19 10 -14 0 -26 -4 -26 -10z"/> <path d="M5300 2971 c0 -6 5 -13 10 -16 15 -9 140 5 140 16 0 5 -34 9 -75 9 -41 0 -75 -4 -75 -9z"/> <path d="M5125 2941 c-9 -15 5 -18 68 -13 31 2 55 8 51 13 -7 12 -111 12 -119 0z"/> <path d="M4478 2908 c9 -9 79 -12 249 -13 244 0 263 1 263 16 0 5 -115 9 -262 9 -203 0 -259 -3 -250 -12z"/> <path d="M4490 2136 c0 -11 -30 -15 -144 -18 -132 -3 -169 -9 -154 -23 25 -25 334 -29 363 -5 6 5 173 10 372 11 326 3 361 4 350 18 -7 9 -16 19 -22 23 -17 13 -703 10 -711 -3 -4 -8 -9 -8 -17 0 -15 15 -37 14 -37 -3z"/> <path d="M6318 2023 c-32 -8 -19 -22 27 -28 24 -4 50 -13 56 -21 6 -8 20 -14 31 -14 24 0 110 -41 163 -78 49 -34 58 -72 24 -108 -12 -13 -27 -24 -32 -24 -5 0 -23 -6 -40 -13 -49 -21 -128 -47 -172 -58 -22 -6 -44 -14 -49 -20 -6 -5 -26 -9 -45 -9 -20 -1 -54 -7 -76 -15 -22 -8 -71 -15 -108 -15 -39 0 -80 -6 -96 -14 -20 -11 -90 -16 -267 -22 -320 -9 -1283 -11 -1414 -2 -58 4 -188 10 -290 14 -102 3 -187 10 -190 14 -3 4 -38 10 -79 14 -41 3 -79 10 -85 15 -6 5 -40 11 -76 14 -62 4 -155 28 -192 48 -10 5 -24 9 -33 9 -26 0 -149 43 -170 59 -13 11 -20 28 -20 50 0 29 6 37 35 53 19 11 40 25 45 32 6 7 27 18 48 25 20 7 37 17 37 22 0 5 6 9 13 9 7 0 22 6 33 14 18 14 18 15 -9 21 -19 5 -33 2 -46 -9 -10 -9 -31 -16 -48 -16 -22 0 -32 -6 -36 -20 -4 -17 -11 -19 -50 -14 -35 5 -45 3 -50 -10 -4 -9 -12 -16 -18 -16 -6 0 -22 -10 -35 -22 -36 -34 -32 -80 9 -120 40 -39 148 -98 179 -98 13 0 29 -4 37 -9 9 -6 24 -5 39 2 20 9 26 8 34 -7 8 -14 17 -16 48 -11 32 5 40 3 50 -14 9 -18 20 -21 81 -21 53 0 71 -4 75 -15 5 -11 23 -15 74 -15 48 0 71 -4 80 -15 10 -12 38 -15 130 -15 94 0 120 -3 131 -16 12 -15 93 -18 392 -14 16 0 32 -2 37 -5 10 -6 795 -5 885 1 28 2 120 4 206 4 128 0 158 2 169 15 10 12 37 15 132 15 96 0 120 3 124 15 5 12 25 15 90 15 66 0 86 3 90 15 5 11 21 15 61 15 47 0 56 3 60 21 5 19 11 21 59 15 36 -4 57 -2 66 6 7 7 40 14 73 16 39 1 64 8 71 17 6 8 21 15 33 15 12 0 24 7 27 15 4 8 14 15 24 15 10 0 29 15 44 34 32 43 36 103 7 128 -33 28 -89 50 -110 43 -14 -4 -26 1 -38 14 -10 12 -23 21 -29 21 -7 0 -14 7 -18 15 -4 11 -20 15 -56 15 -36 0 -52 4 -56 15 -6 15 -55 19 -96 8z"/> </g> </svg> 